<svg xmlns="http://www.w3.org/2000/svg" width="63.998" height="63.999" viewBox="62.501 120.501 63.998 63.999"><g data-name="Group 8"><g data-name="Subtraction 2"><path d="M94.493 184.5c-8.547 0-16.58-3.327-22.623-9.37-6.041-6.041-9.369-14.076-9.369-22.623 0-4.58.952-9 2.829-13.14a32.035 32.035 0 0 1 7.644-10.494c5.922-5.399 13.565-8.372 21.519-8.372 8.553.001 16.591 3.33 22.634 9.373 6.044 6.043 9.372 14.08 9.372 22.627 0 8.029-3.015 15.719-8.488 21.653-.115.124-.228.253-.338.378-.177.201-.358.408-.548.6l-.066.059c-.023.02-.045.039-.066.06-6.033 5.964-14.02 9.249-22.491 9.249h-.009Zm-3.294-33.583a2.246 2.246 0 0 0-1.79.909l-10.057 13.68a2.24 2.24 0 0 0 .476 3.125c.386.284.844.434 1.322.434.72 0 1.377-.332 1.805-.91l8.65-11.771 5.388 4.47a2.267 2.267 0 0 0 1.76.49 2.234 2.234 0 0 0 1.538-.989l8.596-13.179 3.728 2.43.722-13.352-11.925 6.048 3.73 2.432-7.222 11.078-5.283-4.38a2.251 2.251 0 0 0-1.438-.515Z" fill="#f7d73a" fill-rule="evenodd"/><path d="M94.493 184.5h0c-8.547 0-16.58-3.327-22.623-9.37-6.041-6.041-9.369-14.076-9.369-22.623 0-4.58.952-9 2.829-13.14a32.035 32.035 0 0 1 7.644-10.494c5.922-5.399 13.565-8.372 21.519-8.372 8.553.001 16.591 3.33 22.634 9.373 6.044 6.043 9.372 14.08 9.372 22.627 0 8.029-3.015 15.719-8.488 21.653-.115.124-.228.253-.338.378-.177.201-.358.408-.548.6l-.066.059c-.023.02-.045.039-.066.06-6.033 5.964-14.02 9.249-22.491 9.249h-.009 0Zm-3.294-33.583a2.246 2.246 0 0 0-1.79.909l-10.057 13.68a2.24 2.24 0 0 0 .476 3.125c.386.284.844.434 1.322.434.72 0 1.377-.332 1.805-.91l8.65-11.771 5.388 4.47a2.267 2.267 0 0 0 1.76.49 2.234 2.234 0 0 0 1.538-.989l8.596-13.179 3.728 2.43.722-13.352-11.925 6.048 3.73 2.432-7.222 11.078-5.283-4.38a2.251 2.251 0 0 0-1.438-.515Z" stroke-linejoin="round" stroke-linecap="round" stroke="rgba(0,0,0,0 )" fill="transparent"/></g></g></svg>