<svg xmlns="http://www.w3.org/2000/svg" width="115.544" height="124.748" viewBox="-18.318 -2.314 115.544 124.748"><g data-name="Group 1142"><g data-name="Group 1071"><g data-name="Group 1070" clip-path="url(&quot;#a&quot;)"><path d="M96.612 102.44h-40.9V33.413c0-1 .757-1.81 1.691-1.81h38.132c.934 0 1.692.81 1.692 1.81v68.37c0 .363-.276.657-.615.657" fill="#91b3fa" fill-rule="evenodd" data-name="Path 875"/></g></g><g data-name="Group 1073"><g data-name="Group 1072" transform="translate(35.33 54.79)" clip-path="url(&quot;#b&quot;)"><path d="m-22.333 27.6 36.65-45.293 44.198 35.764-36.65 45.292L-22.332 27.6z" fill="#2378e9" fill-rule="evenodd" data-name="Rectangle 379"/></g></g><g data-name="Group 1075"><g data-name="Group 1074" clip-path="url(&quot;#c&quot;)"><path d="M46.195 99.44H15.632c-.34 0-.615-.294-.615-.658v-32.04c0-1 .758-1.81 1.692-1.81h27.794c.934 0 1.692.81 1.692 1.81V99.44Z" fill="#2378e9" fill-rule="evenodd" data-name="Path 877"/></g></g><g data-name="Group 1077"><g data-name="Group 1076" transform="translate(0 77.624)" clip-path="url(&quot;#d&quot;)"><path d="M-7.37 10.403 16.3-23.01l22.247 34.407-23.67 33.412L-7.37 10.403Z" fill="#2378e9" fill-rule="evenodd" data-name="Path 878"/></g></g><g data-name="Group 1079"><g data-name="Group 1078" transform="translate(69.493 21.18)" clip-path="url(&quot;#e&quot;)"><path d="m-.88.108 7.298-.895.977 7.969-7.298.895L-.881.108z" fill="#2378e9" fill-rule="evenodd" data-name="Rectangle 381"/></g></g><g data-name="Group 1081"><g data-name="Group 1080" transform="translate(65.527 7.937)" clip-path="url(&quot;#f&quot;)"><path d="M-.216.003 14.17-.18l.21 16.681-14.385.182L-.215.003z" fill="#2378e9" fill-rule="evenodd" data-name="Rectangle 382"/></g></g><g data-name="Group 1083"><g data-name="Group 1082" transform="translate(67.96 29.515)" clip-path="url(&quot;#g&quot;)"><path d="m-.068 1.118.102-1.68 9.28.566-.102 1.681-9.28-.567z" fill="#2378e9" fill-rule="evenodd" data-name="Rectangle 383"/></g></g><g data-name="Group 1085"><g data-name="Group 1084" transform="translate(67.96 28.26)" clip-path="url(&quot;#h&quot;)"><path d="m-.171 1.232.347-2.495L9.417.024 9.07 2.518-.171 1.232z" fill="#2378e9" fill-rule="evenodd" data-name="Rectangle 385"/></g></g><g data-name="Group 1087"><g data-name="Group 1086" transform="translate(63.935 6.183)" clip-path="url(&quot;#i&quot;)"><path d="M-1.65 2.196 6.383-8.498 19.346 1.24l-8.031 10.693L-1.65 2.196z" fill="#2378e9" fill-rule="evenodd" data-name="Rectangle 386"/></g></g><g data-name="Group 1089"><g data-name="Group 1088" transform="translate(74.663 16.013)" clip-path="url(&quot;#j&quot;)"><path d="m-2.531.948 9.77-3.722 3.547 9.31-9.77 3.722-3.547-9.31z" fill="#2378e9" fill-rule="evenodd" data-name="Rectangle 387"/></g></g><g data-name="Group 1091"><g data-name="Group 1090" transform="translate(62.553 16.013)" clip-path="url(&quot;#k&quot;)"><path d="m-3.967 3.55 8.12-7.713 7.691 8.097-8.119 7.713-7.692-8.097z" fill="#2378e9" fill-rule="evenodd" data-name="Rectangle 388"/></g></g></g><defs><clipPath id="a"><path d="M0 0h97.227v102.74H0V0z" data-name="Rectangle 378"/></clipPath><clipPath id="b"><path d="M1017.95 1440.758c-.935 0-1.692.757-1.692 1.692v43.978h36.182v-43.978c0-.935-.757-1.692-1.692-1.692h-32.799Z" data-name="Path 876" transform="translate(-1016.258 -1440.758)"/></clipPath><clipPath id="c"><path d="M0 0h97.227v102.74H0V0z" data-name="Rectangle 380"/></clipPath><clipPath id="d"><path d="M1.692 2338.124c-.935 0-1.692 1.12-1.692 2.499v18.393c0 .502.275.909.615.909h30.562v-19.302c0-1.38-.757-2.499-1.691-2.499H1.692Z" data-name="Path 879" transform="translate(0 -2338.124)"/></clipPath><clipPath id="e"><path d="m2173.841 545.564 2.343 6.894h1.491l2.68-7.29-6.514.396Z" data-name="Path 880" transform="translate(-2173.841 -545.168)"/></clipPath><clipPath id="f"><path d="M2034.348 80.224c-.007.582-.007 11.975 5.776 13.825 5.783 1.85 8.395-7.79 8.188-14.655l-13.964.83Z" data-name="Path 881" transform="translate(-2034.347 -79.394)"/></clipPath><clipPath id="g"><path d="M0 0h9.246v1.123H0V0z" data-name="Rectangle 384"/></clipPath><clipPath id="h"><path d="m2122.229 794.195-2.34 1.256h9.246l-2.34-1.256h-4.566Z" data-name="Path 882" transform="translate(-2119.889 -794.195)"/></clipPath><clipPath id="i"><path d="m1995.102 17.731-15.851.964c-.508.031-.923.407-.923.836v.876c0 .428.416.757.923.73l15.85-.853c.508-.028.924-.4.924-.83v-1c0-.41-.38-.725-.857-.725-.022 0-.044 0-.066.002" data-name="Path 883" transform="translate(-1978.328 -17.729)"/></clipPath><clipPath id="j"><path d="M2359.264 363.973c-.893.55-1.28 1.393-1.035 2.256.094.333.491.539.887.46.396-.08.64-.415.546-.748-.135-.476.182-.789.472-.967.51-.314 1.223-.384 1.659-.163.528.267.537.908.452 1.4-.505 2.91-5.823 3.472-5.9 3.48-.404.039-.694.346-.648.686.043.317.361.55.731.55a.877.877 0 0 0 .084-.004c.066-.006 1.616-.16 3.26-.763 2.29-.84 3.65-2.143 3.93-3.77.286-1.647-.597-2.362-1.149-2.642a3.06 3.06 0 0 0-1.375-.305c-.66 0-1.346.18-1.914.53" data-name="Path 884" transform="translate(-2355.692 -363.443)"/></clipPath><clipPath id="k"><path d="M1930.92 363.748c-.551.28-1.435.995-1.15 2.641.282 1.628 1.642 2.932 3.93 3.771 1.645.603 3.196.757 3.26.763a.882.882 0 0 0 .085.004c.37 0 .688-.233.731-.55.047-.34-.244-.647-.648-.686-.076-.008-5.395-.57-5.9-3.48-.084-.492-.075-1.133.453-1.4.435-.221 1.149-.151 1.658.163.29.178.608.491.473.967-.095.333.15.668.545.747.396.08.793-.126.888-.46.245-.862-.142-1.705-1.036-2.255a3.704 3.704 0 0 0-1.914-.53c-.493 0-.97.1-1.375.305" data-name="Path 885" transform="translate(-1929.715 -363.443)"/></clipPath><clipPath id="l"><path d="M0 0h97.227v96.037H0V0z" data-name="Rectangle 389"/></clipPath><clipPath id="m"><path d="M0 0h97.227v96.037H0V0z" data-name="Rectangle 390"/></clipPath></defs></svg>