<svg xmlns="http://www.w3.org/2000/svg" width="64" height="64" viewBox="63 354.95 64 64"><g data-name="Group 1339"><path d="M63 386.9a32 32 0 1 1 0 .1z" fill="#2378e9" fill-rule="evenodd" data-name="Ellipse 241"/><g data-name="Group 935"><g data-name="Path 805"><path d="M100.416 402.57c-5.46 1.849-10.629 1.18-15.37-2.108-6.595-4.572-9.009-13.205-5.774-20.456 2.768-6.204 7.676-9.608 14.448-10.174 3.95-.329 7.567.79 10.809 3.055 2.107 1.471 3.772 3.36 5.02 5.611.35.634.194 1.302-.372 1.62-.598.334-1.235.137-1.604-.516-1.713-3.04-4.166-5.275-7.425-6.517-4.83-1.839-9.472-1.343-13.726 1.606-5.071 3.516-7.28 9.533-5.851 15.487.61 2.537 2.004 4.996 3.884 6.848 4.982 4.908 12.546 5.67 18.378 1.837a14.27 14.27 0 0 0 4.635-4.964c.081-.142.163-.287.264-.413.38-.476 1.028-.585 1.511-.263.493.33.677.958.354 1.488-.531.867-1.052 1.751-1.685 2.542-1.985 2.483-4.483 4.297-7.496 5.318" fill="#fff" fill-rule="evenodd"/><path d="M100.416 402.57c-5.46 1.849-10.629 1.18-15.37-2.108-6.595-4.572-9.009-13.205-5.774-20.456 2.768-6.204 7.676-9.608 14.448-10.174 3.95-.329 7.567.79 10.809 3.055 2.107 1.471 3.772 3.36 5.02 5.611.35.634.194 1.302-.372 1.62-.598.334-1.235.137-1.604-.516-1.713-3.04-4.166-5.275-7.425-6.517-4.83-1.839-9.472-1.343-13.726 1.606-5.071 3.516-7.28 9.533-5.851 15.487.61 2.537 2.004 4.996 3.884 6.848 4.982 4.908 12.546 5.67 18.378 1.837a14.27 14.27 0 0 0 4.635-4.964c.081-.142.163-.287.264-.413.38-.476 1.028-.585 1.511-.263.493.33.677.958.354 1.488-.531.867-1.052 1.751-1.685 2.542-1.985 2.483-4.483 4.297-7.496 5.318" stroke-linejoin="round" stroke-linecap="round" stroke-width=".5" stroke="#fff" fill="transparent"/></g><g data-name="Path 806"><path d="M99.261 388.735c.05 1.958-1.325 3.465-3.253 3.567-.023 0-.046.007-.125.019 0 .376.005.737 0 1.098-.01.656-.493 1.138-1.133 1.135-.63-.003-1.11-.494-1.116-1.15-.003-.352 0-.702 0-1.103h-1.658c-.21 0-.422.005-.633-.002a1.112 1.112 0 0 1-1.089-1.142c.007-.608.479-1.1 1.09-1.103 1.455-.009 2.91.001 4.363-.009.218-.002.449-.038.648-.12.46-.188.728-.716.639-1.176-.108-.554-.536-.937-1.108-.95-.727-.016-1.454-.003-2.182-.005-1.812-.004-3.314-1.336-3.444-3.054-.14-1.84 1.067-3.374 2.9-3.68.137-.022.28-.023.474-.039v-.998c.002-.747.454-1.243 1.132-1.24.669.003 1.116.506 1.117 1.256l.001.976c.117.007.217.02.318.02.657.002 1.315-.005 1.971.004.608.01 1.084.501 1.09 1.105.006.627-.466 1.136-1.09 1.14-1.478.01-2.956 0-4.435.004-.556.001-.973.266-1.148.712-.293.747.239 1.522 1.075 1.54.727.015 1.455.002 2.182.003 1.843.007 3.369 1.435 3.414 3.192" fill="#fff" fill-rule="evenodd"/><path d="M99.261 388.735c.05 1.958-1.325 3.465-3.253 3.567-.023 0-.046.007-.125.019 0 .376.005.737 0 1.098-.01.656-.493 1.138-1.133 1.135-.63-.003-1.11-.494-1.116-1.15-.003-.352 0-.702 0-1.103h-1.658c-.21 0-.422.005-.633-.002a1.112 1.112 0 0 1-1.089-1.142c.007-.608.479-1.1 1.09-1.103 1.455-.009 2.91.001 4.363-.009.218-.002.449-.038.648-.12.46-.188.728-.716.639-1.176-.108-.554-.536-.937-1.108-.95-.727-.016-1.454-.003-2.182-.005-1.812-.004-3.314-1.336-3.444-3.054-.14-1.84 1.067-3.374 2.9-3.68.137-.022.28-.023.474-.039v-.998c.002-.747.454-1.243 1.132-1.24.669.003 1.116.506 1.117 1.256l.001.976c.117.007.217.02.318.02.657.002 1.315-.005 1.971.004.608.01 1.084.501 1.09 1.105.006.627-.466 1.136-1.09 1.14-1.478.01-2.956 0-4.435.004-.556.001-.973.266-1.148.712-.293.747.239 1.522 1.075 1.54.727.015 1.455.002 2.182.003 1.843.007 3.369 1.435 3.414 3.192" stroke-linejoin="round" stroke-linecap="round" stroke-width=".5" stroke="#fff" fill="transparent"/></g><path d="M105.142 385.398h8.09" stroke-linejoin="round" stroke-linecap="round" stroke-width="3" stroke="#fff" fill="transparent" data-name="Path 1719"/></g></g></svg>