<svg xmlns="http://www.w3.org/2000/svg" width="64" height="64" viewBox="215 526.95 64 64"><g data-name="Group 1340"><path d="M215 558.9a32 32 0 1 1 0 .1z" fill="#2378e9" fill-rule="evenodd" data-name="Ellipse 241"/><g data-name="Group 935"><g data-name="Path 805"><path d="M262.015 565.9c-2.554 5.169-6.682 8.35-12.359 9.378-7.896 1.43-15.707-2.967-18.547-10.382-2.43-6.344-1.366-12.222 3.022-17.41 2.56-3.026 5.909-4.792 9.803-5.484 2.53-.449 5.043-.291 7.517.419.697.2 1.058.783.882 1.408-.186.66-.776.971-1.498.77-3.362-.939-6.676-.784-9.859.642-4.715 2.114-7.647 5.748-8.57 10.84-1.1 6.073 1.593 11.89 6.814 15.09 2.225 1.363 4.95 2.115 7.588 2.095 6.994-.052 12.88-4.862 14.294-11.696a14.27 14.27 0 0 0-.232-6.788c-.043-.158-.087-.318-.105-.478-.069-.605.313-1.141.883-1.255.58-.116 1.155.199 1.301.802.238.989.495 1.983.607 2.989.351 3.16-.132 6.208-1.54 9.06" fill="#fff" fill-rule="evenodd"/><path d="M262.015 565.9c-2.554 5.169-6.682 8.35-12.359 9.378-7.896 1.43-15.707-2.967-18.547-10.382-2.43-6.344-1.366-12.222 3.022-17.41 2.56-3.026 5.909-4.792 9.803-5.484 2.53-.449 5.043-.291 7.517.419.697.2 1.058.783.882 1.408-.186.66-.776.971-1.498.77-3.362-.939-6.676-.784-9.859.642-4.715 2.114-7.647 5.748-8.57 10.84-1.1 6.073 1.593 11.89 6.814 15.09 2.225 1.363 4.95 2.115 7.588 2.095 6.994-.052 12.88-4.862 14.294-11.696a14.27 14.27 0 0 0-.232-6.788c-.043-.158-.087-.318-.105-.478-.069-.605.313-1.141.883-1.255.58-.116 1.155.199 1.301.802.238.989.495 1.983.607 2.989.351 3.16-.132 6.208-1.54 9.06" stroke-linejoin="round" stroke-linecap="round" stroke-width=".5" stroke="#fff" fill="transparent"/></g><g data-name="Path 806"><path d="M251.261 560.735c.05 1.958-1.325 3.465-3.253 3.567-.023 0-.046.007-.125.019 0 .376.005.737 0 1.098-.009.656-.493 1.138-1.133 1.135-.63-.003-1.11-.494-1.116-1.15-.003-.352 0-.702 0-1.103h-1.658c-.21 0-.422.005-.633-.002a1.112 1.112 0 0 1-1.089-1.142c.007-.608.479-1.1 1.09-1.103 1.455-.009 2.91.001 4.363-.009.218-.002.45-.038.648-.12.46-.188.728-.716.639-1.176-.108-.554-.536-.937-1.108-.95-.727-.016-1.454-.003-2.181-.005-1.813-.004-3.314-1.336-3.445-3.054-.14-1.84 1.067-3.374 2.9-3.68.137-.022.28-.023.474-.039v-.998c.002-.747.454-1.243 1.132-1.24.669.003 1.116.506 1.117 1.256l.001.976c.117.007.218.02.318.02.657.002 1.315-.005 1.971.004.609.01 1.085.501 1.09 1.105.006.627-.466 1.136-1.09 1.14-1.478.01-2.956 0-4.435.004-.555.001-.973.266-1.148.712-.293.747.24 1.522 1.075 1.54.727.015 1.455.002 2.182.003 1.843.007 3.37 1.435 3.414 3.192" fill="#fff" fill-rule="evenodd"/><path d="M251.261 560.735c.05 1.958-1.325 3.465-3.253 3.567-.023 0-.046.007-.125.019 0 .376.005.737 0 1.098-.009.656-.493 1.138-1.133 1.135-.63-.003-1.11-.494-1.116-1.15-.003-.352 0-.702 0-1.103h-1.658c-.21 0-.422.005-.633-.002a1.112 1.112 0 0 1-1.089-1.142c.007-.608.479-1.1 1.09-1.103 1.455-.009 2.91.001 4.363-.009.218-.002.45-.038.648-.12.46-.188.728-.716.639-1.176-.108-.554-.536-.937-1.108-.95-.727-.016-1.454-.003-2.181-.005-1.813-.004-3.314-1.336-3.445-3.054-.14-1.84 1.067-3.374 2.9-3.68.137-.022.28-.023.474-.039v-.998c.002-.747.454-1.243 1.132-1.24.669.003 1.116.506 1.117 1.256l.001.976c.117.007.218.02.318.02.657.002 1.315-.005 1.971.004.609.01 1.085.501 1.09 1.105.006.627-.466 1.136-1.09 1.14-1.478.01-2.956 0-4.435.004-.555.001-.973.266-1.148.712-.293.747.24 1.522 1.075 1.54.727.015 1.455.002 2.182.003 1.843.007 3.37 1.435 3.414 3.192" stroke-linejoin="round" stroke-linecap="round" stroke-width=".5" stroke="#fff" fill="transparent"/></g><g data-name="Path 807"><path d="M263.654 547.393c.003.674-.496 1.132-1.24 1.133-.962.002-1.924.001-2.886.001h-.38v1.535c0 .621.007 1.243-.002 1.866-.008.629-.5 1.106-1.125 1.105-.621 0-1.117-.48-1.12-1.11-.008-1.114-.002-2.227-.002-3.396h-3.305c-.71-.003-1.205-.474-1.202-1.137.005-.65.494-1.111 1.188-1.113 1.09-.003 2.18-.001 3.319-.001v-.391c0-.986-.003-1.971 0-2.957.003-.682.485-1.165 1.142-1.158.633.005 1.104.495 1.107 1.16.004 1.1 0 2.201 0 3.346h3.25c.75 0 1.253.45 1.256 1.117" fill="#fff" fill-rule="evenodd"/><path d="M263.654 547.393c.003.674-.496 1.132-1.24 1.133-.962.002-1.924.001-2.886.001h-.38v1.535c0 .621.007 1.243-.002 1.866-.008.629-.5 1.106-1.125 1.105-.621 0-1.117-.48-1.12-1.11-.008-1.114-.002-2.227-.002-3.396h-3.305c-.71-.003-1.205-.474-1.202-1.137.005-.65.494-1.111 1.188-1.113 1.09-.003 2.18-.001 3.319-.001v-.391c0-.986-.003-1.971 0-2.957.003-.682.485-1.165 1.142-1.158.633.005 1.104.495 1.107 1.16.004 1.1 0 2.201 0 3.346h3.25c.75 0 1.253.45 1.256 1.117" stroke-linejoin="round" stroke-linecap="round" stroke-width=".5" stroke="#fff" fill="transparent"/></g></g></g></svg>